<svg width="52" height="52" viewBox="0 0 52 52" fill="none" xmlns="http://www.w3.org/2000/svg">
<g clip-path="url(#clip0_3517_108)">
<path d="M26.0293 5.07364C30.2916 10.5849 32.5668 17.3811 32.4843 24.3549V26.0196L33.8906 26.8911C35.7076 28.0114 37.0627 29.749 37.7089 31.7873C37.1415 31.3618 36.5479 30.9726 35.9316 30.622L32.1816 28.4775L31.5078 32.8057C31.4494 33.1882 31.3712 33.5673 31.2734 33.9416H20.7656C20.6093 33.452 20.4824 32.9624 20.3652 32.4532L19.5156 28.5362L16.0586 30.4947C15.481 30.8237 14.9234 31.1866 14.3886 31.5817C15.0475 29.5669 16.3743 27.8391 18.1484 26.6855L19.4863 25.8139V24.2667C19.5104 17.3213 21.8131 10.5767 26.039 5.07364H26.0293ZM26.039 1C25.8199 1.00054 25.6083 1.08054 25.4433 1.22523L25.3554 1.30356C19.7241 7.61894 16.5972 15.7853 16.5664 24.257C14.1767 25.8116 12.4079 28.1588 11.5689 30.8885C10.7299 33.6181 10.8742 36.5566 11.9765 39.1904C13.1378 36.6187 15.079 34.4803 17.5234 33.0799C17.7686 34.1447 18.095 35.1891 18.5 36.2037C18.5513 36.3987 18.6651 36.5714 18.8239 36.6953C18.9827 36.8191 19.1777 36.8872 19.3789 36.8891H32.9336C33.207 36.8891 33.4804 36.6248 33.6172 36.2135C34.0124 35.2489 34.2879 34.2392 34.4375 33.2072C36.8866 34.6017 38.8294 36.7419 39.9843 39.3177C41.1532 36.6968 41.3341 33.7398 40.4936 30.9954C39.6532 28.2509 37.8483 25.9054 35.414 24.394C35.5106 15.8724 32.4002 7.62749 26.7031 1.30356C26.6183 1.20845 26.5144 1.13228 26.3983 1.07998C26.2823 1.02769 26.1565 1.00044 26.0293 1H26.039Z" fill="#4EA8DE"/>
<path d="M26.0292 23.4442C25.2791 23.4442 24.5458 23.2215 23.9217 22.8042C23.2977 22.3869 22.8108 21.7937 22.5224 21.0994C22.2341 20.405 22.1571 19.6406 22.3013 18.9025C22.4456 18.1644 22.8045 17.4856 23.3328 16.9518C23.8612 16.4179 24.5353 16.0528 25.2703 15.9025C26.0052 15.7522 26.7681 15.8235 27.4628 16.1073C28.1574 16.3911 28.7527 16.8748 29.1736 17.4973C29.5945 18.1199 29.8222 18.8534 29.828 19.6056V19.6056C29.8397 20.093 29.7555 20.5779 29.5802 21.0327C29.4049 21.4874 29.142 21.9031 28.8064 22.256C28.4709 22.6088 28.0693 22.8919 27.6246 23.089C27.1799 23.2862 26.7008 23.3936 26.2147 23.405C26.1533 23.4149 26.0906 23.4149 26.0292 23.405V23.4442Z" fill="#4EA8DE"/>
<path d="M31.3125 39.3274C31.0682 39.3196 30.8247 39.3608 30.5964 39.4486C30.3682 39.5363 30.1597 39.6689 29.9832 39.8386C29.8068 40.0083 29.6658 40.2115 29.5688 40.4365C29.4717 40.6615 29.4204 40.9037 29.418 41.1488V46.9264C29.418 47.4302 29.6176 47.9134 29.9729 48.2697C30.3282 48.6259 30.81 48.8261 31.3125 48.8261C31.815 48.8261 32.2968 48.6259 32.6521 48.2697C33.0074 47.9134 33.207 47.4302 33.207 46.9264V41.2272C33.2148 40.983 33.1741 40.7396 33.0872 40.5114C33.0002 40.2831 32.8688 40.0745 32.7007 39.8977C32.5325 39.7209 32.331 39.5794 32.1077 39.4815C31.8845 39.3836 31.644 39.3312 31.4004 39.3274H31.3125Z" fill="#5E60CE"/>
<path d="M20.7656 39.3275C20.5171 39.3143 20.2685 39.3514 20.0346 39.4365C19.8007 39.5216 19.5862 39.6531 19.404 39.823C19.2218 39.9929 19.0755 40.1979 18.9739 40.4256C18.8723 40.6534 18.8174 40.8994 18.8125 41.1488V46.9264C18.8125 47.4302 19.0121 47.9134 19.3674 48.2697C19.7227 48.6259 20.2046 48.8261 20.707 48.8261C21.2095 48.8261 21.6914 48.6259 22.0467 48.2697C22.402 47.9134 22.6016 47.4302 22.6016 46.9264V41.2272C22.6094 40.983 22.5686 40.7397 22.4817 40.5114C22.3948 40.2832 22.2634 40.0745 22.0952 39.8977C21.9271 39.7209 21.7255 39.5794 21.5022 39.4815C21.279 39.3836 21.0386 39.3312 20.7949 39.3275H20.7656Z" fill="#5E60CE"/>
<path d="M25.8926 39.3274C25.6489 39.3222 25.4066 39.3652 25.1795 39.454C24.9524 39.5427 24.7449 39.6754 24.569 39.8446C24.3931 40.0137 24.2521 40.216 24.1541 40.4397C24.0562 40.6635 24.0031 40.9045 23.998 41.1488V49.1101C23.998 49.6139 24.1976 50.0971 24.5529 50.4534C24.9082 50.8096 25.3901 51.0098 25.8926 51.0098C26.395 51.0098 26.8769 50.8096 27.2322 50.4534C27.5875 50.0971 27.7871 49.6139 27.7871 49.1101V41.2761C27.7949 41.0319 27.7542 40.7886 27.6672 40.5604C27.5803 40.3321 27.4489 40.1235 27.2808 39.9467C27.1126 39.7698 26.911 39.6284 26.6878 39.5305C26.4645 39.4326 26.2241 39.3802 25.9805 39.3764L25.8926 39.3274Z" fill="#5E60CE"/>
</g>
<defs>
<clipPath id="clip0_3517_108">
<rect width="30" height="50" fill="white" transform="translate(11 1)"/>
</clipPath>
</defs>
</svg>
